<?xml version="1.0" standalone="no"?>
<!DOCTYPE svg PUBLIC "-//W3C//DTD SVG 20010904//EN"
 "http://www.w3.org/TR/2001/REC-SVG-20010904/DTD/svg10.dtd">
<svg version="1.0" xmlns="http://www.w3.org/2000/svg"
 width="1072.000000pt" height="1072.000000pt" viewBox="0 0 1072.000000 1072.000000"
 preserveAspectRatio="xMidYMid meet">
<metadata>
Created by potrace 1.11, written by Peter Selinger 2001-2013
</metadata>
<g transform="translate(0.000000,1072.000000) scale(0.100000,-0.100000)"
fill="#000000" stroke="none">
<path d="M5049 10706 c-2 -2 -51 -7 -109 -10 -58 -4 -114 -9 -125 -11 -11 -2
-47 -7 -80 -10 -33 -3 -69 -7 -81 -9 -12 -2 -45 -7 -74 -11 -29 -4 -62 -9 -74
-11 -11 -2 -38 -6 -61 -9 -31 -5 -196 -38 -296 -60 -119 -26 -395 -104 -502
-141 -126 -45 -291 -106 -332 -124 -22 -10 -74 -32 -115 -50 -473 -205 -976
-525 -1380 -879 -83 -73 -378 -365 -457 -453 -74 -82 -269 -323 -339 -419
-539 -739 -889 -1637 -989 -2529 -3 -30 -8 -71 -10 -90 -27 -231 -27 -878 0
-1073 2 -18 7 -54 10 -82 3 -27 8 -70 11 -95 4 -39 11 -80 28 -182 2 -13 11
-63 21 -113 9 -49 19 -101 22 -115 25 -138 120 -474 187 -661 108 -306 221
-552 401 -874 71 -129 246 -396 343 -525 183 -245 303 -382 531 -611 221 -220
391 -364 693 -585 249 -182 670 -416 988 -549 74 -31 144 -60 155 -65 35 -15
156 -58 265 -94 340 -112 722 -196 1055 -231 33 -4 71 -8 85 -11 118 -19 745
-26 940 -11 926 73 1792 371 2560 880 101 67 240 165 250 177 3 3 21 17 40 30
40 28 29 19 210 171 124 104 422 393 530 514 191 213 446 557 579 780 281 469
461 890 603 1410 16 61 32 121 34 135 3 14 11 52 19 85 8 33 17 74 20 90 3 17
7 41 10 55 3 14 14 75 25 135 17 103 21 131 35 260 3 28 8 66 10 85 10 87 16
163 20 265 6 119 6 475 1 540 -2 22 -6 87 -10 145 -4 58 -9 116 -11 130 -2 14
-7 48 -10 75 -26 232 -74 494 -130 710 -9 33 -20 76 -24 95 -15 60 -78 260
-119 375 -224 622 -555 1190 -983 1690 -129 151 -428 450 -579 579 -258 220
-592 453 -885 616 -93 52 -383 195 -455 225 -36 14 -83 34 -105 44 -162 74
-591 213 -790 256 -33 7 -92 20 -130 29 -39 8 -83 17 -98 20 -15 2 -35 7 -45
10 -9 2 -37 7 -62 10 -25 3 -56 8 -70 11 -27 6 -52 9 -145 20 -33 4 -67 9 -75
10 -8 2 -49 6 -90 10 -41 3 -88 9 -105 11 -34 6 -730 15 -736 10z"/>
</g>
</svg>
